Coordinates
version=1
nRows=9
nColumns=24
inDegrees=yes

Units are S.I. units (second, meters, Newtons, ...)
Angles are in degrees.

endheader
time	pelvis_tilt	pelvis_list	pelvis_rotation	pelvis_tx	pelvis_ty	pelvis_tz	hip_flexion_r	hip_adduction_r	hip_rotation_r	knee_angle_r	ankle_angle_r	subtalar_angle_r	mtp_angle_r	hip_flexion_l	hip_adduction_l	hip_rotation_l	knee_angle_l	ankle_angle_l	subtalar_angle_l	mtp_angle_l	lumbar_extension	lumbar_bending	lumbar_rotation
      1.37900000	     -5.00132724	     -7.30113911	     -9.72932106	      0.84493930	      0.96353416	      0.37561353	    -14.48181327	      8.26655057	     -0.26103932	     -8.46335607	     13.10624889	     -1.05829027	      0.97162782	     36.05511776	    -12.88307561	    -11.19857448	      1.71480969	      5.08653064	     -7.29448533	    -16.39736785	     -5.43752017	      7.58036095	     10.56524386
      1.38316667	     -5.01304259	     -7.28080351	    -10.06544165	      0.85067689	      0.96245187	      0.37632762	    -14.74522324	      8.09483098	     -0.01330413	     -8.65613739	     13.15520894	     -0.88493255	      1.11888844	     36.13921269	    -13.12594907	    -11.05761458	      1.05014660	      5.48704510	     -7.34166355	    -16.39387003	     -5.44972423	      7.41238389	     10.73265164
      1.38733333	     -5.05937474	     -7.21247682	    -10.46840963	      0.85652437	      0.96139236	      0.37718662	    -14.95386939	      7.86393592	      0.26144062	     -8.87511113	     13.10695228	     -0.75995587	      1.38194684	     36.22427819	    -13.37482757	    -11.07248071	      0.36096990	      5.92365469	     -7.21107110	    -16.39370300	     -5.40462344	      7.17334344	     11.09375765
      1.39150000	     -5.08126081	     -7.16838852	    -10.84766634	      0.86240477	      0.96036645	      0.37796496	    -15.19771249	      7.65218761	      0.53352282	     -9.07822646	     13.06324765	     -0.62383842	      1.67492592	     36.28598715	    -13.62589117	    -11.04642872	     -0.37163651	      6.38127694	     -7.08816588	    -16.39727394	     -5.38899156	      6.96934084	     11.37906197
      1.39566667	     -5.10227465	     -7.12148803	    -11.21727504	      0.86832732	      0.95935199	      0.37865588	    -15.42860204	      7.42818840	      0.76800765	     -9.30353902	     13.00879544	     -0.45590003	      1.96251657	     36.32755008	    -13.85703910	    -10.97695972	     -1.10356472	      6.82845680	     -7.03041095	    -16.40506114	     -5.37373873	      6.77017647	     11.64584142
      1.39983333	     -5.11095780	     -7.08921093	    -11.56234717	      0.87431407	      0.95835875	      0.37925688	    -15.68155782	      7.21398635	      0.99059413	     -9.51392128	     12.96934753	     -0.24101653	      2.15969706	     36.34762125	    -14.07814318	    -10.88581976	     -1.84487569	      7.24079258	     -6.96259506	    -16.40705246	     -5.36390750	      6.59665973	     11.84831205
      1.40400000	     -5.13952144	     -7.03149471	    -11.94119315	      0.88038357	      0.95737786	      0.37990086	    -15.89561718	      6.96382290	      1.21306192	     -9.74998290	     12.86497913	     -0.04385823	      2.40461559	     36.36218806	    -14.29753719	    -10.89220247	     -2.58656487	      7.66778684	     -6.78612276	    -16.40933828	     -5.32183056	      6.39142640	     12.15486436
      1.40816667	     -5.15052476	     -6.92932365	    -12.38728914	      0.88654513	      0.95653457	      0.38074030	    -16.12523916	      6.65589170	      1.53753912	     -9.97227972	     12.66347552	     -0.01054574	      2.97904155	     36.29325136	    -14.51925136	    -11.04613394	     -3.28594512	      8.04913400	     -6.54161148	    -16.41749715	     -5.27610911	      6.10980702	     12.51870000
      1.41233333	     -5.16489071	     -6.85108120	    -12.73483871	      0.89274954	      0.95561518	      0.38122379	    -16.33208891	      6.36857672	      1.67427846	    -10.23104353	     12.51791238	      0.24939396	      3.54084254	     36.25595189	    -14.67925827	    -11.06732873	     -3.99920464	      8.39652726	     -6.39049868	    -16.41483270	     -5.23248527	      5.89001198	     12.78332306
